<?xml version="1.0" encoding="UTF-8" standalone="no"?>
<svg
   xmlns:dc="http://purl.org/dc/elements/1.1/"
   xmlns:cc="http://creativecommons.org/ns#"
   xmlns:rdf="http://www.w3.org/1999/02/22-rdf-syntax-ns#"
   xmlns:svg="http://www.w3.org/2000/svg"
   xmlns="http://www.w3.org/2000/svg"
   xmlns:sodipodi="http://sodipodi.sourceforge.net/DTD/sodipodi-0.dtd"
   xmlns:inkscape="http://www.inkscape.org/namespaces/inkscape"
   width="11"
   height="11"
   viewBox="0 0 2.9104166 2.9104166"
   version="1.1"
   id="svg942"
   sodipodi:docname="album.svg"
   inkscape:version="1.0 (b51213c273, 2020-08-10)">
  <sodipodi:namedview
     pagecolor="#ffffff"
     bordercolor="#666666"
     borderopacity="1"
     objecttolerance="10"
     gridtolerance="10"
     guidetolerance="10"
     inkscape:pageopacity="0"
     inkscape:pageshadow="2"
     inkscape:window-width="1607"
     inkscape:window-height="935"
     id="namedview12"
     showgrid="false"
     inkscape:zoom="78.363636"
     inkscape:cx="5.5"
     inkscape:cy="5.0664342"
     inkscape:window-x="234"
     inkscape:window-y="68"
     inkscape:window-maximized="0"
     inkscape:current-layer="g3776" />
  <defs
     id="defs936" />
  <metadata
     id="metadata939">
    <rdf:RDF>
      <cc:Work
         rdf:about="">
        <dc:format>image/svg+xml</dc:format>
        <dc:type
           rdf:resource="http://purl.org/dc/dcmitype/StillImage" />
        <dc:title />
      </cc:Work>
    </rdf:RDF>
  </metadata>
  <g
     transform="matrix(-0.39285714,0,0,0.39285714,2.9104166,-10.30687)"
     id="layer1">
    <g
       transform="translate(-0.1779995,-0.17843843)"
       id="g3776">
      <path
         id="path4989"
         style="fill:#414141;fill-opacity:1;stroke-width:0.176056"
         d="M 5.3144531 0.005859375 C 4.4160839 0.030847549 3.5254284 0.2703225 2.7460938 0.73828125 C 1.0667468 1.6916405 -0.015372581 3.5686232 0 5.5 C -0.040095038 7.9277859 1.7294715 10.228945 4.0859375 10.814453 C 6.4179083 11.476116 9.0932129 10.364794 10.267578 8.2441406 C 11.511099 6.1633024 11.128562 3.2912549 9.3847656 1.6074219 C 8.3300852 0.51975726 6.8117351 -0.035787582 5.3144531 0.005859375 z M 5.40625 3.9453125 C 5.8021422 3.9236507 6.2075363 4.0436215 6.5078125 4.3046875 C 6.791219 4.5621721 6.9984641 4.9198108 7.0273438 5.3066406 C 7.0895619 5.9813329 6.6816988 6.7020167 6.0234375 6.9160156 C 5.6783518 7.0484254 5.2858606 7.0425981 4.9453125 6.8984375 C 4.3783851 6.6718533 3.9368253 6.0950037 3.9648438 5.4707031 C 3.9621325 5.0904733 4.1122371 4.7203417 4.3613281 4.4355469 C 4.6237275 4.1300188 5.0103578 3.9669743 5.40625 3.9453125 z "
         transform="matrix(-0.67348484,0,0,0.67348484,7.5863327,26.414108)" />
    </g>
  </g>
</svg>
