<?xml version="1.0" encoding="UTF-8" standalone="no"?>
<svg
   xmlns:dc="http://purl.org/dc/elements/1.1/"
   xmlns:cc="http://creativecommons.org/ns#"
   xmlns:rdf="http://www.w3.org/1999/02/22-rdf-syntax-ns#"
   xmlns:svg="http://www.w3.org/2000/svg"
   xmlns="http://www.w3.org/2000/svg"
   id="svg2986"
   viewBox="0 0 11 11"
   version="1.1"
   width="11"
   height="11">
  <title
     id="title3044">eighth note</title>
  <defs
     id="defs2988">
    <linearGradient
       id="linearGradient3019"
       y2="333.89001"
       gradientUnits="userSpaceOnUse"
       x2="490.53"
       gradientTransform="matrix(0.03748095,0,0,0.03748095,-10.556122,589.92637)"
       y1="489.14001"
       x1="382.34">
      <stop
         id="stop3015"
         stop-opacity=".82639"
         offset="0" />
      <stop
         id="stop3017"
         offset="1" />
    </linearGradient>
  </defs>
  <g
     transform="translate(0,-599)"
     id="layer1">
    <path
       id="path3"
       d="m 6.3358268,599.18233 c 0.2583047,0.38125 0.3910986,0.84288 0.7239514,1.17214 0.3812354,0.50209 0.8684554,0.91797 1.2462218,1.42605 0.273401,0.355 0.573083,0.73232 0.650699,1.17889 0.209005,0.57284 0.118256,1.21592 -0.104722,1.7767 -0.251571,0.3024 -0.423566,-0.089 -0.353343,-0.33126 0.01069,-0.33433 0.0058,-0.66778 -0.122403,-0.98358 -0.113722,-0.47358 -0.3216884,-0.92174 -0.6698554,-1.26924 -0.302533,-0.26518 -0.6459924,-0.84951 -1.107204,-0.64831 -0.3045688,0.19187 -0.171881,0.57972 -0.2046552,0.87866 -0.01811,1.83897 -0.019328,3.67865 -0.048711,5.51726 -0.02247,0.77218 -0.6898965,1.29023 -1.3146021,1.62175 -0.5565409,0.33491 -1.2228791,0.52249 -1.8689078,0.37322 -0.6007348,-0.0616 -1.2221755,-0.5002 -1.2347659,-1.14909 -0.040052,-0.75238 0.503331,-1.45299 1.1722462,-1.75011 0.656651,-0.37427 1.4868445,-0.45538 2.1939512,-0.18635 0.3455335,0.10923 0.441621,-0.21142 0.4847502,-0.51983 0.039904,-2.34078 0.071842,-4.68155 0.080004,-7.02269 0.0066,-0.23402 0.3877436,-0.29111 0.4773021,-0.0841 z"
       style="fill:url(#linearGradient3019);fill-rule:evenodd;stroke:#000000;stroke-width:0.1068583;stroke-linecap:round;stroke-linejoin:round" />
  </g>
  <metadata
     id="metadata840">
    <rdf:RDF>
      <cc:Work>
        <dc:format>image/svg+xml</dc:format>
        <dc:type
           rdf:resource="http://purl.org/dc/dcmitype/StillImage" />
        <cc:license
           rdf:resource="http://creativecommons.org/publicdomain/zero/1.0/" />
        <dc:publisher>
          <cc:Agent
             rdf:about="http://openclipart.org/">
            <dc:title>Openclipart</dc:title>
          </cc:Agent>
        </dc:publisher>
        <dc:title>eighth note</dc:title>
        <dc:date>2010-10-27T16:06:43</dc:date>
        <dc:description>a single stem facing up eighth note</dc:description>
        <dc:source>http://openclipart.org/detail/92869/eighth-note-(stem-facing-up)-by-jaschon</dc:source>
        <dc:creator>
          <cc:Agent>
            <dc:title>jaschon</dc:title>
          </cc:Agent>
        </dc:creator>
        <dc:subject>
          <rdf:Bag>
            <rdf:li>black and white</rdf:li>
            <rdf:li>clip art</rdf:li>
            <rdf:li>clipart</rdf:li>
            <rdf:li>eighth</rdf:li>
            <rdf:li>flag</rdf:li>
            <rdf:li>music</rdf:li>
            <rdf:li>music note</rdf:li>
            <rdf:li>musical notation</rdf:li>
            <rdf:li>quaver</rdf:li>
            <rdf:li>sound</rdf:li>
            <rdf:li>staff</rdf:li>
          </rdf:Bag>
        </dc:subject>
      </cc:Work>
      <cc:License
         rdf:about="http://creativecommons.org/publicdomain/zero/1.0/">
        <cc:permits
           rdf:resource="http://creativecommons.org/ns#Reproduction" />
        <cc:permits
           rdf:resource="http://creativecommons.org/ns#Distribution" />
        <cc:permits
           rdf:resource="http://creativecommons.org/ns#DerivativeWorks" />
      </cc:License>
    </rdf:RDF>
  </metadata>
</svg>
